<svg width="17" height="10" viewBox="0 0 17 10" fill="none" xmlns="http://www.w3.org/2000/svg">
<path d="M16.0572 0.785412C15.8345 0.56279 15.5325 0.437728 15.2177 0.437728C14.9028 0.437728 14.6008 0.56279 14.3781 0.785412L8.49997 6.66354L2.62185 0.785412C2.39788 0.569099 2.09792 0.449406 1.78656 0.452111C1.4752 0.454817 1.17736 0.579705 0.957188 0.799877C0.737016 1.02005 0.612129 1.31789 0.609423 1.62925C0.606717 1.94061 0.726411 2.24057 0.942723 2.46454L7.66041 9.18222C7.8831 9.40485 8.18509 9.52991 8.49997 9.52991C8.81486 9.52991 9.11685 9.40485 9.33954 9.18222L16.0572 2.46454C16.2798 2.24185 16.4049 1.93986 16.4049 1.62497C16.4049 1.31009 16.2798 1.0081 16.0572 0.785412Z" fill="currentColor"/>
<path d="M16.0572 0.785412C15.8345 0.56279 15.5325 0.437728 15.2177 0.437728C14.9028 0.437728 14.6008 0.56279 14.3781 0.785412L8.49997 6.66354L2.62185 0.785412C2.39788 0.569099 2.09792 0.449406 1.78656 0.452111C1.4752 0.454817 1.17736 0.579705 0.957188 0.799877C0.737016 1.02005 0.612129 1.31789 0.609423 1.62925C0.606717 1.94061 0.726411 2.24057 0.942723 2.46454L7.66041 9.18222C7.8831 9.40485 8.18509 9.52991 8.49997 9.52991C8.81486 9.52991 9.11685 9.40485 9.33954 9.18222L16.0572 2.46454C16.2798 2.24185 16.4049 1.93986 16.4049 1.62497C16.4049 1.31009 16.2798 1.0081 16.0572 0.785412Z" fill="white" fill-opacity="0.5"/>
</svg>
